<?xml version="1.0" standalone="no"?><!DOCTYPE svg PUBLIC "-//W3C//DTD SVG 1.1//EN" "http://www.w3.org/Graphics/SVG/1.1/DTD/svg11.dtd"><svg t="1541657433899" class="icon" style="" viewBox="0 0 1227 1024" version="1.1" xmlns="http://www.w3.org/2000/svg" p-id="10675" xmlns:xlink="http://www.w3.org/1999/xlink" width="57.515625" height="48"><defs><style type="text/css"></style></defs><path d="M1226.131673 554.327222L1052.336216 0l-885.506745 187.963565 41.087513 137.78485L0 380.649833s97.051539 309.927361 160.926092 513.357777 218.188862 107.087282 218.188862 107.087282S1048.794189 719.503747 1150.450363 676.527153c95.988931-40.26104 75.68131-122.199931 75.68131-122.199931zM231.294362 860.004151L98.94062 438.148737l133.652485-30.933702 162.697106 545.23602 57.026634-34.593797c-181.351781 97.287674-221.022484-57.853107-221.022483-57.853107z m894.00761-228.46074S998.025135 680.659518 850.086475 741.464315l-94.454053-303.19751-312.288712 97.169607 105.080134 335.429955c-30.933702 14.522311-59.033783 27.863946-82.647296 39.78877l-162.933241-519.497291-45.337946-145.223106L1031.202122 67.770783s119.720512 382.893117 143.452092 458.338291-49.352243 105.434336-49.352242 105.434337z m0 0" fill="#F7931E" p-id="10676"></path><path d="M1077.602675 355.383374l-258.331834 82.647296 20.189553 63.638418 257.033092-86.661593z m0 0M852.329759 543.110804l20.189554 64.819093 254.67174-94.454052-18.772743-59.978324z m0 0M495.883777 254.789807l16.293324 52.067797c8.500865 26.919405 16.883662 50.887121 26.68327 73.792229h-0.590338a633.668627 633.668627 0 0 0-49.116107-53.248472l-59.624121-56.436297-50.650986 12.63323L436.849994 467.665629l39.434567-11.806757-17.237864-54.901418c-9.327338-29.753027-17.94627-55.255621-26.801338-79.105269h0.944541a690.459126 690.459126 0 0 0 52.658134 55.373688l61.040932 58.20731 42.504324-12.633229-55.373689-177.101349z m0 0M652.44137 368.606941l-12.987432-41.087513 62.339674-17.237865-9.799608-31.405972-62.57581 16.529459-11.806756-36.010607L684.791883 241.920443l-9.917676-31.642108-106.260809 26.092932 54.901418 175.448403L732.018909 380.531765l-9.917675-31.760175z m0 0M816.083016 277.340713c-1.534878-17.828202-3.89623-34.121527-6.847919-53.602675 7.910527 18.41854 15.112648 33.176986 23.613514 48.998039l35.420269 67.180446 37.073216-10.862217-11.806756-172.378646-34.711865 8.618932 8.382797 69.541797c3.069757 20.307621 5.549176 40.379108 9.091203 59.033783-8.737-16.529459-16.529459-33.767324-26.211-51.949729l-33.885391-65.99977-37.781621 9.209271 7.910527 71.430877c2.479419 21.8425 5.076905 42.858526 8.264729 61.867405-7.910527-16.175257-17.94627-36.837081-27.863945-55.964027L732.018909 196.46443l-39.316499 10.035743 91.620431 158.682809 39.316499-11.806757z m0 0M973.939352 236.489335c19.008878 1.771013 27.745878 5.549176 30.815635 15.348783s-2.361351 19.245013-17.237865 23.613514a81.938891 81.938891 0 0 1-39.316499 0l2.715554 31.760175a89.849418 89.849418 0 0 0 44.039202-2.125216c38.608094-11.806757 49.234175-38.844229 41.087513-65.055229-6.847919-22.078635-22.668973-33.295054-50.769054-36.955148-21.134094-2.715554-30.5795-5.076905-33.531188-15.230716-2.597486-8.028594 2.007149-17.00173 16.057189-20.543757a62.57581 62.57581 0 0 1 31.760175 0l-1.771014-30.343364a83.709904 83.709904 0 0 0-38.726161 1.062608c-33.767324 8.26473-48.52577 34.239594-40.024905 61.749337 7.320189 23.023175 27.982013 33.531189 54.901418 36.482878z m0 0" fill="#F7931E" p-id="10677"></path></svg>