<?xml version="1.0" standalone="no"?><!DOCTYPE svg PUBLIC "-//W3C//DTD SVG 1.1//EN" "http://www.w3.org/Graphics/SVG/1.1/DTD/svg11.dtd"><svg t="1542081717205" class="icon" style="" viewBox="0 0 1024 1024" version="1.1" xmlns="http://www.w3.org/2000/svg" p-id="6762" xmlns:xlink="http://www.w3.org/1999/xlink" width="48" height="48"><defs><style type="text/css"></style></defs><path d="M819.2 778.24H417.28L327.68 921.6l-71.68-143.36H204.8a102.4 102.4 0 0 1-102.4-102.4V204.8a102.4 102.4 0 0 1 102.4-102.4h614.4a102.4 102.4 0 0 1 102.4 102.4v471.04a102.4 102.4 0 0 1-102.4 102.4zM286.72 389.12a61.44 61.44 0 1 0 0 122.88 61.44 61.44 0 0 0 0-122.88z m225.28 0a61.44 61.44 0 1 0 0 122.88 61.44 61.44 0 0 0 0-122.88z m225.28 0a61.44 61.44 0 1 0 0 122.88 61.44 61.44 0 0 0 0-122.88z" fill="#1CDAA8" p-id="6763"></path></svg>